<svg xmlns="http://www.w3.org/2000/svg" id="Layer_1" data-name="Layer 1" viewBox="228.31 141.75 317.34 310.83">
  <defs>
    <style>
      .cls-1 {
        fill: #5248e5;
      }

      .cls-1, .cls-2, .cls-3 {
        stroke-miterlimit: 10;
      }

      ..cls-3 {
        stroke: #5248e5;
        stroke-width: 5px;
      }

      .cls-2 {
        stroke: #fff;
        stroke-width: 6px;
      }

      .cls-2, .cls-3 {
        fill: none;
      }

      .cls-4 {
        fill: #5248e5;
      }
    </style>
  </defs>
  <path class="cls-1" d="m510.85,330.26l26.61-9.68,8.19,22.5-167.82,61.08c-.24-.27-.5-.53-.76-.78-4.36-4.26-10.32-6.89-16.91-6.89-3.4,0-6.63.7-9.56,1.96l-3.17-8.71-73.45-201.8-45.67-16.62,8.18-22.5,56.54,21.44,76.9,211.29,137.8-50.15.32-.12h.01l.62.12"/>
  <line class="cls-3" x1="293.99" y1="170.62" x2="293.03" y2="170.26"/>
  <polyline class="cls-3" points="510.85 330.26 508.6 331.09 508.59 331.09 508.06 331.28"/>
  <polyline class="cls-3" points="508.06 331.28 508.59 331.09 508.6 331.09"/>
  <line class="cls-3" x1="293.03" y1="170.26" x2="292.6" y2="169.08"/>
  <path class="cls-3" d="m349.99,400.13c-.1.04-.19.08-.29.13"/>
  <path class="cls-1" d="m376.9,411.83c-.24-.27-.5-.53-.76-.78-4.36-4.26-10.32-6.89-16.91-6.89-3.4,0-6.63.7-9.56,1.96-.1.04-.19.08-.29.13-8.46,3.77-14.36,12.26-14.36,22.12,0,13.37,10.84,24.21,24.21,24.21s24.21-10.84,24.21-24.21c0-6.39-2.48-12.22-6.54-16.54Zm-17.67,28.68c-6.7,0-12.14-5.44-12.14-12.14,0-4.64,2.61-8.68,6.44-10.72.1-.05.19-.1.29-.14,1.63-.82,3.47-1.28,5.41-1.28.73,0,1.44.06,2.13.19.59.1,1.16.25,1.71.44,4.82,1.6,8.29,6.15,8.29,11.51,0,6.7-5.43,12.14-12.13,12.14Z"/>
  <path class="cls-4" d="m511.01,331.79l-2.33-.39-.63-.12-143.31-26.58c-8.66-2.21-16.82-6.82-23.41-13.8-18.48-19.61-17.57-50.48,2.04-68.96,19.6-18.47,50.47-17.56,68.95,2.05-18.48-19.61-17.56-50.48,2.04-68.96,19.61-18.47,50.47-17.56,68.95,2.05,6.58,6.97,10.69,15.35,12.39,24.11h0s15.31,150.6,15.31,150.6Z"/>
  <polyline class="cls-2" points="364.74 304.7 380.28 290.05 405.3 297.52 384.04 242.13 424.67 259.23 423.05 243.07 466.2 256.79 453.5 222.71 469.51 207.63 466.9 195.7 478.6 197.39 495.69 181.19"/>
</svg>